<svg aria-roledescription="class" role="graphics-document document" viewBox="0 0 413.265625 1084" style="max-width: 413.265625px;" class="classDiagram" xmlns:xlink="http://www.w3.org/1999/xlink" xmlns="http://www.w3.org/2000/svg" width="100%" id="mermaid-diagram-mermaid-ulbcs7m"><style>#mermaid-diagram-mermaid-ulbcs7m{font-family:"trebuchet ms",verdana,arial,sans-serif;font-size:16px;fill:#ccc;}@keyframes edge-animation-frame{from{stroke-dashoffset:0;}}@keyframes dash{to{stroke-dashoffset:0;}}#mermaid-diagram-mermaid-ulbcs7m .edge-animation-slow{stroke-dasharray:9,5!important;stroke-dashoffset:900;animation:dash 50s linear infinite;stroke-linecap:round;}#mermaid-diagram-mermaid-ulbcs7m .edge-animation-fast{stroke-dasharray:9,5!important;stroke-dashoffset:900;animation:dash 20s linear infinite;stroke-linecap:round;}#mermaid-diagram-mermaid-ulbcs7m .error-icon{fill:#a44141;}#mermaid-diagram-mermaid-ulbcs7m .error-text{fill:#ddd;stroke:#ddd;}#mermaid-diagram-mermaid-ulbcs7m .edge-thickness-normal{stroke-width:1px;}#mermaid-diagram-mermaid-ulbcs7m .edge-thickness-thick{stroke-width:3.5px;}#mermaid-diagram-mermaid-ulbcs7m .edge-pattern-solid{stroke-dasharray:0;}#mermaid-diagram-mermaid-ulbcs7m .edge-thickness-invisible{stroke-width:0;fill:none;}#mermaid-diagram-mermaid-ulbcs7m .edge-pattern-dashed{stroke-dasharray:3;}#mermaid-diagram-mermaid-ulbcs7m .edge-pattern-dotted{stroke-dasharray:2;}#mermaid-diagram-mermaid-ulbcs7m .marker{fill:lightgrey;stroke:lightgrey;}#mermaid-diagram-mermaid-ulbcs7m .marker.cross{stroke:lightgrey;}#mermaid-diagram-mermaid-ulbcs7m svg{font-family:"trebuchet ms",verdana,arial,sans-serif;font-size:16px;}#mermaid-diagram-mermaid-ulbcs7m p{margin:0;}#mermaid-diagram-mermaid-ulbcs7m g.classGroup text{fill:#ccc;stroke:none;font-family:"trebuchet ms",verdana,arial,sans-serif;font-size:10px;}#mermaid-diagram-mermaid-ulbcs7m g.classGroup text .title{font-weight:bolder;}#mermaid-diagram-mermaid-ulbcs7m .nodeLabel,#mermaid-diagram-mermaid-ulbcs7m .edgeLabel{color:#e0dfdf;}#mermaid-diagram-mermaid-ulbcs7m .edgeLabel .label rect{fill:#1f2020;}#mermaid-diagram-mermaid-ulbcs7m .label text{fill:#e0dfdf;}#mermaid-diagram-mermaid-ulbcs7m .labelBkg{background:#1f2020;}#mermaid-diagram-mermaid-ulbcs7m .edgeLabel .label span{background:#1f2020;}#mermaid-diagram-mermaid-ulbcs7m .classTitle{font-weight:bolder;}#mermaid-diagram-mermaid-ulbcs7m .node rect,#mermaid-diagram-mermaid-ulbcs7m .node circle,#mermaid-diagram-mermaid-ulbcs7m .node ellipse,#mermaid-diagram-mermaid-ulbcs7m .node polygon,#mermaid-diagram-mermaid-ulbcs7m .node path{fill:#1f2020;stroke:#ccc;stroke-width:1px;}#mermaid-diagram-mermaid-ulbcs7m .divider{stroke:#ccc;stroke-width:1;}#mermaid-diagram-mermaid-ulbcs7m g.clickable{cursor:pointer;}#mermaid-diagram-mermaid-ulbcs7m g.classGroup rect{fill:#1f2020;stroke:#ccc;}#mermaid-diagram-mermaid-ulbcs7m g.classGroup line{stroke:#ccc;stroke-width:1;}#mermaid-diagram-mermaid-ulbcs7m .classLabel .box{stroke:none;stroke-width:0;fill:#1f2020;opacity:0.5;}#mermaid-diagram-mermaid-ulbcs7m .classLabel .label{fill:#ccc;font-size:10px;}#mermaid-diagram-mermaid-ulbcs7m .relation{stroke:lightgrey;stroke-width:1;fill:none;}#mermaid-diagram-mermaid-ulbcs7m .dashed-line{stroke-dasharray:3;}#mermaid-diagram-mermaid-ulbcs7m .dotted-line{stroke-dasharray:1 2;}#mermaid-diagram-mermaid-ulbcs7m #compositionStart,#mermaid-diagram-mermaid-ulbcs7m .composition{fill:lightgrey!important;stroke:lightgrey!important;stroke-width:1;}#mermaid-diagram-mermaid-ulbcs7m #compositionEnd,#mermaid-diagram-mermaid-ulbcs7m .composition{fill:lightgrey!important;stroke:lightgrey!important;stroke-width:1;}#mermaid-diagram-mermaid-ulbcs7m #dependencyStart,#mermaid-diagram-mermaid-ulbcs7m .dependency{fill:lightgrey!important;stroke:lightgrey!important;stroke-width:1;}#mermaid-diagram-mermaid-ulbcs7m #dependencyStart,#mermaid-diagram-mermaid-ulbcs7m .dependency{fill:lightgrey!important;stroke:lightgrey!important;stroke-width:1;}#mermaid-diagram-mermaid-ulbcs7m #extensionStart,#mermaid-diagram-mermaid-ulbcs7m .extension{fill:transparent!important;stroke:lightgrey!important;stroke-width:1;}#mermaid-diagram-mermaid-ulbcs7m #extensionEnd,#mermaid-diagram-mermaid-ulbcs7m .extension{fill:transparent!important;stroke:lightgrey!important;stroke-width:1;}#mermaid-diagram-mermaid-ulbcs7m #aggregationStart,#mermaid-diagram-mermaid-ulbcs7m .aggregation{fill:transparent!important;stroke:lightgrey!important;stroke-width:1;}#mermaid-diagram-mermaid-ulbcs7m #aggregationEnd,#mermaid-diagram-mermaid-ulbcs7m .aggregation{fill:transparent!important;stroke:lightgrey!important;stroke-width:1;}#mermaid-diagram-mermaid-ulbcs7m #lollipopStart,#mermaid-diagram-mermaid-ulbcs7m .lollipop{fill:#1f2020!important;stroke:lightgrey!important;stroke-width:1;}#mermaid-diagram-mermaid-ulbcs7m #lollipopEnd,#mermaid-diagram-mermaid-ulbcs7m .lollipop{fill:#1f2020!important;stroke:lightgrey!important;stroke-width:1;}#mermaid-diagram-mermaid-ulbcs7m .edgeTerminals{font-size:11px;line-height:initial;}#mermaid-diagram-mermaid-ulbcs7m .classTitleText{text-anchor:middle;font-size:18px;fill:#ccc;}#mermaid-diagram-mermaid-ulbcs7m :root{--mermaid-font-family:"trebuchet ms",verdana,arial,sans-serif;}</style><g><defs><marker orient="auto" markerHeight="240" markerWidth="190" refY="7" refX="18" class="marker aggregation class" id="mermaid-diagram-mermaid-ulbcs7m_class-aggregationStart"><path d="M 18,7 L9,13 L1,7 L9,1 Z"></path></marker></defs><defs><marker orient="auto" markerHeight="28" markerWidth="20" refY="7" refX="1" class="marker aggregation class" id="mermaid-diagram-mermaid-ulbcs7m_class-aggregationEnd"><path d="M 18,7 L9,13 L1,7 L9,1 Z"></path></marker></defs><defs><marker orient="auto" markerHeight="240" markerWidth="190" refY="7" refX="18" class="marker extension class" id="mermaid-diagram-mermaid-ulbcs7m_class-extensionStart"><path d="M 1,7 L18,13 V 1 Z"></path></marker></defs><defs><marker orient="auto" markerHeight="28" markerWidth="20" refY="7" refX="1" class="marker extension class" id="mermaid-diagram-mermaid-ulbcs7m_class-extensionEnd"><path d="M 1,1 V 13 L18,7 Z"></path></marker></defs><defs><marker orient="auto" markerHeight="240" markerWidth="190" refY="7" refX="18" class="marker composition class" id="mermaid-diagram-mermaid-ulbcs7m_class-compositionStart"><path d="M 18,7 L9,13 L1,7 L9,1 Z"></path></marker></defs><defs><marker orient="auto" markerHeight="28" markerWidth="20" refY="7" refX="1" class="marker composition class" id="mermaid-diagram-mermaid-ulbcs7m_class-compositionEnd"><path d="M 18,7 L9,13 L1,7 L9,1 Z"></path></marker></defs><defs><marker orient="auto" markerHeight="240" markerWidth="190" refY="7" refX="6" class="marker dependency class" id="mermaid-diagram-mermaid-ulbcs7m_class-dependencyStart"><path d="M 5,7 L9,13 L1,7 L9,1 Z"></path></marker></defs><defs><marker orient="auto" markerHeight="28" markerWidth="20" refY="7" refX="13" class="marker dependency class" id="mermaid-diagram-mermaid-ulbcs7m_class-dependencyEnd"><path d="M 18,7 L9,13 L14,7 L9,1 Z"></path></marker></defs><defs><marker orient="auto" markerHeight="240" markerWidth="190" refY="7" refX="13" class="marker lollipop class" id="mermaid-diagram-mermaid-ulbcs7m_class-lollipopStart"><circle r="6" cy="7" cx="7" fill="transparent" stroke="black"></circle></marker></defs><defs><marker orient="auto" markerHeight="240" markerWidth="190" refY="7" refX="1" class="marker lollipop class" id="mermaid-diagram-mermaid-ulbcs7m_class-lollipopEnd"><circle r="6" cy="7" cx="7" fill="transparent" stroke="black"></circle></marker></defs><g class="root"><g class="clusters"></g><g class="edgePaths"><path marker-end="url(#mermaid-diagram-mermaid-ulbcs7m_class-dependencyEnd)" style=";" class="edge-thickness-normal edge-pattern-dashed relation" id="id_CarroRepository_Carro_1" d="M206.633,738L206.633,744.167C206.633,750.333,206.633,762.667,206.633,774C206.633,785.333,206.633,795.667,206.633,800.833L206.633,806"></path><path marker-end="url(#mermaid-diagram-mermaid-ulbcs7m_class-dependencyEnd)" style=";" class="edge-thickness-normal edge-pattern-solid relation" id="id_CarroService_CarroRepository_2" d="M206.633,466L206.633,472.167C206.633,478.333,206.633,490.667,206.633,502C206.633,513.333,206.633,523.667,206.633,528.833L206.633,534"></path><path marker-end="url(#mermaid-diagram-mermaid-ulbcs7m_class-dependencyEnd)" style=";" class="edge-thickness-normal edge-pattern-solid relation" id="id_CarroController_CarroService_3" d="M206.633,200L206.633,206.167C206.633,212.333,206.633,224.667,206.633,236C206.633,247.333,206.633,257.667,206.633,262.833L206.633,268"></path></g><g class="edgeLabels"><g transform="translate(206.6328125, 775)" class="edgeLabel"><g transform="translate(-38.375, -12)" class="label"><foreignObject height="24" width="76.75"><div class="labelBkg" xmlns="http://www.w3.org/1999/xhtml" style="display: table-cell; white-space: nowrap; line-height: 1.5; max-width: 200px; text-align: center;"><span class="edgeLabel" style=";display: inline-block"><p>"manuseia"</p></span></div></foreignObject></g></g><g transform="translate(206.6328125, 503)" class="edgeLabel"><g transform="translate(-16.765625, -12)" class="label"><foreignObject height="24" width="33.53125"><div class="labelBkg" xmlns="http://www.w3.org/1999/xhtml" style="display: table-cell; white-space: nowrap; line-height: 1.5; max-width: 200px; text-align: center;"><span class="edgeLabel" style=";display: inline-block"><p>"usa"</p></span></div></foreignObject></g></g><g transform="translate(206.6328125, 237)" class="edgeLabel"><g transform="translate(-28.2265625, -12)" class="label"><foreignObject height="24" width="56.453125"><div class="labelBkg" xmlns="http://www.w3.org/1999/xhtml" style="display: table-cell; white-space: nowrap; line-height: 1.5; max-width: 200px; text-align: center;"><span class="edgeLabel" style=";display: inline-block"><p>"chama"</p></span></div></foreignObject></g></g></g><g class="nodes"><g transform="translate(206.6328125, 944)" id="classId-Carro-12" class="node default"><g class="basic label-container"><path style="" fill="#1f2020" stroke-width="0" stroke="none" d="M-123.07421875 -132 L123.07421875 -132 L123.07421875 132 L-123.07421875 132"></path><path style="" fill="none" stroke-width="1.3" stroke="#ccc" d="M-123.07421875 -132 C-41.8783335758239 -132, 39.317551598352196 -132, 123.07421875 -132 M-123.07421875 -132 C-49.01550724562276 -132, 25.043204258754486 -132, 123.07421875 -132 M123.07421875 -132 C123.07421875 -49.52673614782124, 123.07421875 32.94652770435752, 123.07421875 132 M123.07421875 -132 C123.07421875 -79.00043847895813, 123.07421875 -26.000876957916276, 123.07421875 132 M123.07421875 132 C33.805130092768394 132, -55.46395856446321 132, -123.07421875 132 M123.07421875 132 C59.75763574092614 132, -3.558947268147719 132, -123.07421875 132 M-123.07421875 132 C-123.07421875 45.98454561539987, -123.07421875 -40.030908769200266, -123.07421875 -132 M-123.07421875 132 C-123.07421875 71.0654312905874, -123.07421875 10.130862581174796, -123.07421875 -132"></path></g><g transform="translate(0, -108)" class="annotation-group text"></g><g transform="translate(-20.2734375, -108)" class="label-group text"><g transform="translate(0,-12)" style="font-weight: bolder" class="label"><foreignObject height="24" width="40.546875"><div xmlns="http://www.w3.org/1999/xhtml" style="display: table-cell; white-space: nowrap; line-height: 1.5; max-width: 91px; text-align: center;"><span style="" class="nodeLabel markdown-node-label"><p>Carro</p></span></div></foreignObject></g></g><g transform="translate(-111.07421875, -60)" class="members-group text"><g transform="translate(0,-12)" style="" class="label"><foreignObject height="24" width="56.84375"><div xmlns="http://www.w3.org/1999/xhtml" style="display: table-cell; white-space: nowrap; line-height: 1.5; max-width: 119px; text-align: center;"><span style="" class="nodeLabel markdown-node-label"><p>-Long id</p></span></div></foreignObject></g><g transform="translate(0,12)" style="" class="label"><foreignObject height="24" width="95.234375"><div xmlns="http://www.w3.org/1999/xhtml" style="display: table-cell; white-space: nowrap; line-height: 1.5; max-width: 159px; text-align: center;"><span style="" class="nodeLabel markdown-node-label"><p>-String marca</p></span></div></foreignObject></g><g transform="translate(0,36)" style="" class="label"><foreignObject height="24" width="89.359375"><div xmlns="http://www.w3.org/1999/xhtml" style="display: table-cell; white-space: nowrap; line-height: 1.5; max-width: 153px; text-align: center;"><span style="" class="nodeLabel markdown-node-label"><p>-String placa</p></span></div></foreignObject></g><g transform="translate(0,60)" style="" class="label"><foreignObject height="24" width="73.921875"><div xmlns="http://www.w3.org/1999/xhtml" style="display: table-cell; white-space: nowrap; line-height: 1.5; max-width: 138px; text-align: center;"><span style="" class="nodeLabel markdown-node-label"><p>-String cor</p></span></div></foreignObject></g><g transform="translate(0,84)" style="" class="label"><foreignObject height="24" width="201.875"><div xmlns="http://www.w3.org/1999/xhtml" style="display: table-cell; white-space: nowrap; line-height: 1.5; max-width: 268px; text-align: center;"><span style="" class="nodeLabel markdown-node-label"><p>-LocalDateTime horaEntrada</p></span></div></foreignObject></g><g transform="translate(0,108)" style="" class="label"><foreignObject height="24" width="184.453125"><div xmlns="http://www.w3.org/1999/xhtml" style="display: table-cell; white-space: nowrap; line-height: 1.5; max-width: 252px; text-align: center;"><span style="" class="nodeLabel markdown-node-label"><p>-LocalDateTime horaSaida</p></span></div></foreignObject></g></g><g transform="translate(-111.07421875, 108)" class="methods-group text"><g transform="translate(0,-12)" style="" class="label"><foreignObject height="24" width="126.921875"><div xmlns="http://www.w3.org/1999/xhtml" style="display: table-cell; white-space: nowrap; line-height: 1.5; max-width: 188px; text-align: center;"><span style="" class="nodeLabel markdown-node-label"><p>+getters/setters()</p></span></div></foreignObject></g></g><g style="" class="divider"><path style="" fill="none" stroke-width="1.3" stroke="#ccc" d="M-123.07421875 -84 C-64.37709815176876 -84, -5.679977553537512 -84, 123.07421875 -84 M-123.07421875 -84 C-27.087870726821308 -84, 68.89847729635738 -84, 123.07421875 -84"></path></g><g style="" class="divider"><path style="" fill="none" stroke-width="1.3" stroke="#ccc" d="M-123.07421875 84 C-30.978588304274098 84, 61.117042141451805 84, 123.07421875 84 M-123.07421875 84 C-39.054950541580084 84, 44.96431766683983 84, 123.07421875 84"></path></g></g><g transform="translate(206.6328125, 639)" id="classId-CarroRepository-13" class="node default"><g class="basic label-container"><path style="" fill="#1f2020" stroke-width="0" stroke="none" d="M-122.59765625 -99 L122.59765625 -99 L122.59765625 99 L-122.59765625 99"></path><path style="" fill="none" stroke-width="1.3" stroke="#ccc" d="M-122.59765625 -99 C-46.599668403030506 -99, 29.398319443938988 -99, 122.59765625 -99 M-122.59765625 -99 C-51.178893886390526 -99, 20.23986847721895 -99, 122.59765625 -99 M122.59765625 -99 C122.59765625 -47.90190119694609, 122.59765625 3.196197606107816, 122.59765625 99 M122.59765625 -99 C122.59765625 -51.74976251208925, 122.59765625 -4.499525024178496, 122.59765625 99 M122.59765625 99 C73.3135875444017 99, 24.029518838803398 99, -122.59765625 99 M122.59765625 99 C38.890493196351386 99, -44.81666985729723 99, -122.59765625 99 M-122.59765625 99 C-122.59765625 27.670251362664004, -122.59765625 -43.65949727467199, -122.59765625 -99 M-122.59765625 99 C-122.59765625 54.608142846687976, -122.59765625 10.216285693375951, -122.59765625 -99"></path></g><g transform="translate(-40.625, -75)" class="annotation-group text"><g transform="translate(0,-12)" style="" class="label"><foreignObject height="24" width="81.25"><div xmlns="http://www.w3.org/1999/xhtml" style="display: table-cell; white-space: nowrap; line-height: 1.5; max-width: 131px; text-align: center;"><span style="" class="nodeLabel markdown-node-label"><p>«interface»</p></span></div></foreignObject></g></g><g transform="translate(-59.6640625, -51)" class="label-group text"><g transform="translate(0,-12)" style="font-weight: bolder" class="label"><foreignObject height="24" width="119.328125"><div xmlns="http://www.w3.org/1999/xhtml" style="display: table-cell; white-space: nowrap; line-height: 1.5; max-width: 172px; text-align: center;"><span style="" class="nodeLabel markdown-node-label"><p>CarroRepository</p></span></div></foreignObject></g></g><g transform="translate(-110.59765625, -3)" class="members-group text"></g><g transform="translate(-110.59765625, 27)" class="methods-group text"><g transform="translate(0,-12)" style="" class="label"><foreignObject height="24" width="143.109375"><div xmlns="http://www.w3.org/1999/xhtml" style="display: table-cell; white-space: nowrap; line-height: 1.5; max-width: 206px; text-align: center;"><span style="" class="nodeLabel markdown-node-label"><p>+save(Carro) : Carro</p></span></div></foreignObject></g><g transform="translate(0,12)" style="" class="label"><foreignObject height="24" width="161.53125"><div xmlns="http://www.w3.org/1999/xhtml" style="display: table-cell; white-space: nowrap; line-height: 1.5; max-width: 264px; text-align: center;"><span style="" class="nodeLabel markdown-node-label"><p>+findAll() : List&lt;Carro&gt;</p></span></div></foreignObject></g><g transform="translate(0,36)" style="" class="label"><foreignObject height="24" width="161.015625"><div xmlns="http://www.w3.org/1999/xhtml" style="display: table-cell; white-space: nowrap; line-height: 1.5; max-width: 227px; text-align: center;"><span style="" class="nodeLabel markdown-node-label"><p>+deleteByPlaca(String)</p></span></div></foreignObject></g></g><g style="" class="divider"><path style="" fill="none" stroke-width="1.3" stroke="#ccc" d="M-122.59765625 -27 C-62.409632234476184 -27, -2.221608218952369 -27, 122.59765625 -27 M-122.59765625 -27 C-47.334351466364154 -27, 27.92895331727169 -27, 122.59765625 -27"></path></g><g style="" class="divider"><path style="" fill="none" stroke-width="1.3" stroke="#ccc" d="M-122.59765625 -3 C-30.168714522597924 -3, 62.26022720480415 -3, 122.59765625 -3 M-122.59765625 -3 C-60.69269117702322 -3, 1.2122738959535582 -3, 122.59765625 -3"></path></g></g><g transform="translate(206.6328125, 370)" id="classId-CarroService-14" class="node default"><g class="basic label-container"><path style="" fill="#1f2020" stroke-width="0" stroke="none" d="M-198.6328125 -96 L198.6328125 -96 L198.6328125 96 L-198.6328125 96"></path><path style="" fill="none" stroke-width="1.3" stroke="#ccc" d="M-198.6328125 -96 C-98.68440543010547 -96, 1.2640016397890577 -96, 198.6328125 -96 M-198.6328125 -96 C-79.53093019913331 -96, 39.57095210173338 -96, 198.6328125 -96 M198.6328125 -96 C198.6328125 -33.874006753353804, 198.6328125 28.251986493292392, 198.6328125 96 M198.6328125 -96 C198.6328125 -46.7695965976017, 198.6328125 2.4608068047966043, 198.6328125 96 M198.6328125 96 C87.44604215773695 96, -23.74072818452609 96, -198.6328125 96 M198.6328125 96 C102.27164648531969 96, 5.910480470639385 96, -198.6328125 96 M-198.6328125 96 C-198.6328125 19.402556791285548, -198.6328125 -57.194886417428904, -198.6328125 -96 M-198.6328125 96 C-198.6328125 40.80634671803071, -198.6328125 -14.38730656393858, -198.6328125 -96"></path></g><g transform="translate(0, -72)" class="annotation-group text"></g><g transform="translate(-47.578125, -72)" class="label-group text"><g transform="translate(0,-12)" style="font-weight: bolder" class="label"><foreignObject height="24" width="95.15625"><div xmlns="http://www.w3.org/1999/xhtml" style="display: table-cell; white-space: nowrap; line-height: 1.5; max-width: 147px; text-align: center;"><span style="" class="nodeLabel markdown-node-label"><p>CarroService</p></span></div></foreignObject></g></g><g transform="translate(-186.6328125, -24)" class="members-group text"><g transform="translate(0,-12)" style="" class="label"><foreignObject height="24" width="194.5"><div xmlns="http://www.w3.org/1999/xhtml" style="display: table-cell; white-space: nowrap; line-height: 1.5; max-width: 266px; text-align: center;"><span style="" class="nodeLabel markdown-node-label"><p>-CarroRepository repository</p></span></div></foreignObject></g></g><g transform="translate(-186.6328125, 24)" class="methods-group text"><g transform="translate(0,-12)" style="" class="label"><foreignObject height="24" width="216.984375"><div xmlns="http://www.w3.org/1999/xhtml" style="display: table-cell; white-space: nowrap; line-height: 1.5; max-width: 284px; text-align: center;"><span style="" class="nodeLabel markdown-node-label"><p>+cadastrarCarro(Carro) : Carro</p></span></div></foreignObject></g><g transform="translate(0,12)" style="" class="label"><foreignObject height="24" width="325.6875"><div xmlns="http://www.w3.org/1999/xhtml" style="display: table-cell; white-space: nowrap; line-height: 1.5; max-width: 397px; text-align: center;"><span style="" class="nodeLabel markdown-node-label"><p>+calcularValorEstacionamento(Carro) : double</p></span></div></foreignObject></g><g transform="translate(0,36)" style="" class="label"><foreignObject height="24" width="190.71875"><div xmlns="http://www.w3.org/1999/xhtml" style="display: table-cell; white-space: nowrap; line-height: 1.5; max-width: 298px; text-align: center;"><span style="" class="nodeLabel markdown-node-label"><p>+listarTodos() : List&lt;Carro&gt;</p></span></div></foreignObject></g></g><g style="" class="divider"><path style="" fill="none" stroke-width="1.3" stroke="#ccc" d="M-198.6328125 -48 C-71.36218163728931 -48, 55.90844922542138 -48, 198.6328125 -48 M-198.6328125 -48 C-60.52435042863394 -48, 77.58411164273213 -48, 198.6328125 -48"></path></g><g style="" class="divider"><path style="" fill="none" stroke-width="1.3" stroke="#ccc" d="M-198.6328125 0 C-105.45559131697536 0, -12.278370133950716 0, 198.6328125 0 M-198.6328125 0 C-97.86197510227449 0, 2.90886229545103 0, 198.6328125 0"></path></g></g><g transform="translate(206.6328125, 104)" id="classId-CarroController-15" class="node default"><g class="basic label-container"><path style="" fill="#1f2020" stroke-width="0" stroke="none" d="M-181.08203125 -96 L181.08203125 -96 L181.08203125 96 L-181.08203125 96"></path><path style="" fill="none" stroke-width="1.3" stroke="#ccc" d="M-181.08203125 -96 C-83.69303694934945 -96, 13.695957351301104 -96, 181.08203125 -96 M-181.08203125 -96 C-46.116323233620335 -96, 88.84938478275933 -96, 181.08203125 -96 M181.08203125 -96 C181.08203125 -48.46478699312648, 181.08203125 -0.9295739862529615, 181.08203125 96 M181.08203125 -96 C181.08203125 -48.71402327305062, 181.08203125 -1.4280465461012426, 181.08203125 96 M181.08203125 96 C64.54923819674583 96, -51.983554856508334 96, -181.08203125 96 M181.08203125 96 C92.51936301240818 96, 3.9566947748163557 96, -181.08203125 96 M-181.08203125 96 C-181.08203125 31.932496564821534, -181.08203125 -32.13500687035693, -181.08203125 -96 M-181.08203125 96 C-181.08203125 47.137721042959974, -181.08203125 -1.7245579140800515, -181.08203125 -96"></path></g><g transform="translate(0, -72)" class="annotation-group text"></g><g transform="translate(-57.7734375, -72)" class="label-group text"><g transform="translate(0,-12)" style="font-weight: bolder" class="label"><foreignObject height="24" width="115.546875"><div xmlns="http://www.w3.org/1999/xhtml" style="display: table-cell; white-space: nowrap; line-height: 1.5; max-width: 166px; text-align: center;"><span style="" class="nodeLabel markdown-node-label"><p>CarroController</p></span></div></foreignObject></g></g><g transform="translate(-169.08203125, -24)" class="members-group text"><g transform="translate(0,-12)" style="" class="label"><foreignObject height="24" width="149.765625"><div xmlns="http://www.w3.org/1999/xhtml" style="display: table-cell; white-space: nowrap; line-height: 1.5; max-width: 219px; text-align: center;"><span style="" class="nodeLabel markdown-node-label"><p>-CarroService service</p></span></div></foreignObject></g></g><g transform="translate(-169.08203125, 24)" class="methods-group text"><g transform="translate(0,-12)" style="" class="label"><foreignObject height="24" width="276.46875"><div xmlns="http://www.w3.org/1999/xhtml" style="display: table-cell; white-space: nowrap; line-height: 1.5; max-width: 389px; text-align: center;"><span style="" class="nodeLabel markdown-node-label"><p>+salvar(Carro) : ResponseEntity&lt;Carro&gt;</p></span></div></foreignObject></g><g transform="translate(0,12)" style="" class="label"><foreignObject height="24" width="151.359375"><div xmlns="http://www.w3.org/1999/xhtml" style="display: table-cell; white-space: nowrap; line-height: 1.5; max-width: 253px; text-align: center;"><span style="" class="nodeLabel markdown-node-label"><p>+listar() : List&lt;Carro&gt;</p></span></div></foreignObject></g><g transform="translate(0,36)" style="" class="label"><foreignObject height="24" width="280.390625"><div xmlns="http://www.w3.org/1999/xhtml" style="display: table-cell; white-space: nowrap; line-height: 1.5; max-width: 394px; text-align: center;"><span style="" class="nodeLabel markdown-node-label"><p>+deletar(String) : ResponseEntity&lt;Void&gt;</p></span></div></foreignObject></g></g><g style="" class="divider"><path style="" fill="none" stroke-width="1.3" stroke="#ccc" d="M-181.08203125 -48 C-105.42481503574359 -48, -29.767598821487184 -48, 181.08203125 -48 M-181.08203125 -48 C-39.60738025016727 -48, 101.86727074966547 -48, 181.08203125 -48"></path></g><g style="" class="divider"><path style="" fill="none" stroke-width="1.3" stroke="#ccc" d="M-181.08203125 0 C-44.41327088362627 0, 92.25548948274746 0, 181.08203125 0 M-181.08203125 0 C-93.10965140410818 0, -5.137271558216355 0, 181.08203125 0"></path></g></g></g></g></g></svg>